# xmcd
#
# Track frame offsets: 
#        150
#        23637
#        41120
#        60180
#        86908
#        110128
#        126615
#        140526
#        172037
#        197657
#        210961
#        229795
#        254738
#
# Disc length: 3626 seconds
#
# Revision: 0
# Processed by: cddbd v1.5.2PL0 Copyright (c) Steve Scherf et al.
# Submitted via: ExactAudioCopy v0.95b4
#
DISCID=c00e280d
DTITLE=Nick Becattini - Pistoia Blues
DYEAR=2003
DGENRE=Blues
TTITLE0=Pistoia Blues
TTITLE1=Don't Jump
TTITLE2=In The Morning
TTITLE3=Fortunate
TTITLE4=That's Love
TTITLE5=Ghetto Woman
TTITLE6=Voodoo Daddy
TTITLE7=Oslo Slow
TTITLE8=Serious Boogie
TTITLE9=New Day
TTITLE10=Betty Boops
TTITLE11=Blooded Game
TTITLE12=Warm Feeling
EXTD=
EXTT0=
EXTT1=
EXTT2=
EXTT3=
EXTT4=
EXTT5=
EXTT6=
EXTT7=
EXTT8=
EXTT9=
EXTT10=
EXTT11=
EXTT12=
PLAYORDER=
